<svg width="50" height="50" viewBox="0 0 50 50" fill="none" xmlns="http://www.w3.org/2000/svg">
<path d="M25 20.8333C29.0271 20.8333 32.2917 17.5688 32.2917 13.5417C32.2917 9.51459 29.0271 6.25 25 6.25C20.973 6.25 17.7084 9.51459 17.7084 13.5417C17.7084 17.5688 20.973 20.8333 25 20.8333Z" fill="#333333" stroke="#333333" stroke-width="2" stroke-linecap="round" stroke-linejoin="round"/>
<path d="M6.25 42.5V43.75H43.75V42.5C43.75 37.8329 43.75 35.4994 42.8418 33.7168C42.0428 32.1488 40.7679 30.8739 39.1999 30.0749C37.4173 29.1667 35.0837 29.1667 30.4167 29.1667H19.5833C14.9162 29.1667 12.5827 29.1667 10.8001 30.0749C9.23206 30.8739 7.95722 32.1488 7.15828 33.7168C6.25 35.4994 6.25 37.8329 6.25 42.5Z" fill="#333333" stroke="#333333" stroke-width="2" stroke-linecap="round" stroke-linejoin="round"/>
</svg>
